<?xml version="1.0" encoding="iso-8859-1"?>
<!-- Generator: Adobe Illustrator 19.0.0, SVG Export Plug-In . SVG Version: 6.00 Build 0)  -->
<svg version="1.1" id="Capa_1" xmlns="http://www.w3.org/2000/svg" xmlns:xlink="http://www.w3.org/1999/xlink" x="0px" y="0px"
	 viewBox="0 0 490.667 490.667" style="enable-background:new 0 0 490.667 490.667;" xml:space="preserve">
<g>
	<g>
		<path d="M480,0H10.667C4.779,0,0,4.779,0,10.667V480c0,5.888,4.779,10.667,10.667,10.667H96c5.888,0,10.667-4.779,10.667-10.667
			v-10.667H384V480c0,5.888,4.779,10.667,10.667,10.667H480c5.888,0,10.667-4.779,10.667-10.667V10.667
			C490.667,4.779,485.888,0,480,0z M469.333,469.333h-64v-10.667c0-5.888-4.779-10.667-10.667-10.667H96
			c-5.888,0-10.667,4.779-10.667,10.667v10.667h-64v-448h448V469.333z"/>
	</g>
</g>
<g>
	<g>
		<path d="M394.667,106.667H96c-5.888,0-10.667,4.779-10.667,10.667v341.333c0,5.888,4.779,10.667,10.667,10.667h298.667
			c5.888,0,10.667-4.779,10.667-10.667V117.333C405.333,111.445,400.555,106.667,394.667,106.667z M384,448H106.667V128H384V448z"/>
	</g>
</g>
<g>
	<g>
		<path d="M245.333,106.667c-5.888,0-10.667,4.779-10.667,10.667v341.333c0,5.888,4.779,10.667,10.667,10.667
			S256,464.555,256,458.667V117.333C256,111.445,251.221,106.667,245.333,106.667z"/>
	</g>
</g>
<g>
	<g>
		<circle cx="437.333" cy="224" r="10.667"/>
	</g>
</g>
<g>
	<g>
		<circle cx="437.333" cy="266.667" r="10.667"/>
	</g>
</g>
<g>
	<g>
		<path d="M210.219,67.136l-21.333-21.333c-4.16-4.16-10.923-4.16-15.083,0l-21.333,21.333c-4.16,4.16-4.16,10.923,0,15.083
			c4.16,4.16,10.923,4.16,15.083,0l13.781-13.803l13.781,13.803c2.091,2.069,4.821,3.115,7.552,3.115
			c2.731,0,5.461-1.045,7.552-3.115C214.379,78.059,214.379,71.296,210.219,67.136z"/>
	</g>
</g>
<g>
	<g>
		<path d="M338.197,45.803c-4.16-4.16-10.923-4.16-15.083,0l-13.781,13.781l-13.803-13.781c-4.16-4.16-10.923-4.16-15.083,0
			c-4.16,4.16-4.16,10.923,0,15.083l21.333,21.333c2.091,2.069,4.821,3.115,7.552,3.115s5.461-1.045,7.531-3.115l21.333-21.333
			C342.357,56.725,342.357,49.963,338.197,45.803z"/>
	</g>
</g>
<g>
</g>
<g>
</g>
<g>
</g>
<g>
</g>
<g>
</g>
<g>
</g>
<g>
</g>
<g>
</g>
<g>
</g>
<g>
</g>
<g>
</g>
<g>
</g>
<g>
</g>
<g>
</g>
<g>
</g>
</svg>
